<?xml version="1.0" standalone="no"?>
<!DOCTYPE svg PUBLIC "-//W3C//DTD SVG 20010904//EN"
 "http://www.w3.org/TR/2001/REC-SVG-20010904/DTD/svg10.dtd">
<svg version="1.0" xmlns="http://www.w3.org/2000/svg"
 width="558.000000pt" height="558.000000pt" viewBox="0 0 558.000000 558.000000"
 preserveAspectRatio="xMidYMid meet">
<metadata>
Created by potrace 1.11, written by Peter Selinger 2001-2013
</metadata>
<g transform="translate(0.000000,558.000000) scale(0.100000,-0.100000)"
fill="#000000" stroke="none">
<path d="M580 5112 l-115 -3 2 -1282 c2 -705 3 -1335 3 -1399 l0 -118 470 0
470 0 0 1400 0 1400 -117 0 c-65 0 -226 1 -358 3 -132 1 -292 1 -355 -1z"/>
<path d="M2370 5112 l-45 -3 2 -352 c2 -194 3 -405 3 -469 l0 -118 470 0 470
0 0 470 0 470 -117 0 c-65 0 -257 2 -428 3 -170 1 -330 1 -355 -1z"/>
<path d="M4300 5112 l-115 -3 2 -1282 c2 -705 3 -1335 3 -1399 l0 -118 470 0
470 0 0 1400 0 1400 -62 1 c-405 3 -673 4 -768 1z"/>
<path d="M2373 3252 l-43 -3 0 -207 c0 -114 -1 -270 -1 -347 0 -77 0 -195 0
-262 l1 -123 470 0 470 0 0 470 0 470 -117 0 c-65 0 -257 2 -428 3 -170 1
-329 1 -352 -1z"/>
<path d="M1513 1392 l-113 -3 0 -72 c-1 -138 -1 -742 -1 -804 l1 -63 1400 0
1400 0 0 470 0 470 -62 0 c-396 3 -2541 4 -2625 2z"/>
</g>
</svg>
